<svg width="16" height="16" viewBox="0 0 16 16" fill="none" xmlns="http://www.w3.org/2000/svg">
<mask id="mask0_2338_516" style="mask-type:alpha" maskUnits="userSpaceOnUse" x="0" y="0" width="16" height="16">
<rect width="16" height="16" fill="#D9D9D9"/>
</mask>
<g mask="url(#mask0_2338_516)">
<path d="M5.60001 11.1025L8.00001 8.70246L10.4 11.1025L11.1025 10.4L8.70251 7.99996L11.1025 5.59996L10.4 4.89746L8.00001 7.29746L5.60001 4.89746L4.89751 5.59996L7.29751 7.99996L4.89751 10.4L5.60001 11.1025ZM8.00117 14.3333C7.12517 14.3333 6.30178 14.1671 5.531 13.8346C4.76023 13.5022 4.08978 13.051 3.51967 12.4811C2.94956 11.9112 2.49817 11.2411 2.1655 10.4706C1.83295 9.70018 1.66667 8.87702 1.66667 8.00113C1.66667 7.12513 1.83289 6.30174 2.16534 5.53096C2.49778 4.76018 2.94895 4.08974 3.51884 3.51963C4.08873 2.94951 4.75889 2.49813 5.52934 2.16546C6.29978 1.8329 7.12295 1.66663 7.99884 1.66663C8.87484 1.66663 9.69823 1.83285 10.469 2.16529C11.2398 2.49774 11.9102 2.9489 12.4803 3.51879C13.0505 4.08868 13.5018 4.75885 13.8345 5.52929C14.1671 6.29974 14.3333 7.1229 14.3333 7.99879C14.3333 8.87479 14.1671 9.69818 13.8347 10.469C13.5022 11.2397 13.0511 11.9102 12.4812 12.4803C11.9113 13.0504 11.2411 13.5018 10.4707 13.8345C9.70023 14.167 8.87706 14.3333 8.00117 14.3333Z" fill="#CD1E1E"/>
</g>
</svg>
