<svg width="16" height="16" viewBox="0 0 16 16" fill="none" xmlns="http://www.w3.org/2000/svg">
<mask id="mask0_2338_521" style="mask-type:alpha" maskUnits="userSpaceOnUse" x="0" y="0" width="16" height="16">
<rect width="16" height="16" fill="#D9D9D9"/>
</mask>
<g mask="url(#mask0_2338_521)">
<path d="M7.05382 10.8358L11.5358 6.35379L10.8333 5.65129L7.05382 9.43079L5.15382 7.53079L4.45132 8.23329L7.05382 10.8358ZM8.00116 14.3333C7.12516 14.3333 6.30177 14.1671 5.53099 13.8346C4.76021 13.5022 4.08977 13.051 3.51966 12.4811C2.94955 11.9112 2.49816 11.2411 2.16549 10.4706C1.83293 9.70018 1.66666 8.87702 1.66666 8.00113C1.66666 7.12513 1.83288 6.30174 2.16532 5.53096C2.49777 4.76018 2.94893 4.08974 3.51882 3.51963C4.08871 2.94951 4.75888 2.49813 5.52932 2.16546C6.29977 1.8329 7.12293 1.66663 7.99882 1.66663C8.87482 1.66663 9.69821 1.83285 10.469 2.16529C11.2398 2.49774 11.9102 2.9489 12.4803 3.51879C13.0504 4.08868 13.5018 4.75885 13.8345 5.52929C14.167 6.29974 14.3333 7.1229 14.3333 7.99879C14.3333 8.87479 14.1671 9.69818 13.8347 10.469C13.5022 11.2397 13.051 11.9102 12.4812 12.4803C11.9113 13.0504 11.2411 13.5018 10.4707 13.8345C9.70021 14.167 8.87705 14.3333 8.00116 14.3333Z" fill="#1B9046"/>
</g>
</svg>
