<svg width="32" height="32" viewBox="0 0 32 32" fill="none" xmlns="http://www.w3.org/2000/svg">
<circle cx="16" cy="16" r="16" fill="#F7F7F7"/>
<mask id="mask0_2516_249" style="mask-type:alpha" maskUnits="userSpaceOnUse" x="6" y="6" width="20" height="20">
<rect x="6" y="6" width="20" height="20" fill="#D9D9D9"/>
</mask>
<g mask="url(#mask0_2516_249)">
<path d="M20.9679 16.625V15.375H23.9808V16.625H20.9679ZM21.9198 22.234L19.5096 20.4262L20.2692 19.4296L22.6794 21.2371L21.9198 22.234ZM20.2371 12.5385L19.4775 11.5417L21.8877 9.73396L22.6475 10.7308L20.2371 12.5385ZM10.375 21.4006V18.1475H9.52562C9.11007 18.1475 8.75514 18.0003 8.46083 17.7058C8.16639 17.4115 8.01917 17.0566 8.01917 16.641V15.359C8.01917 14.9434 8.16639 14.5885 8.46083 14.2942C8.75514 13.9997 9.11007 13.8525 9.52562 13.8525H12.7469L16.4808 11.625V20.375L12.7469 18.1475H11.625V21.4006H10.375ZM15.2308 18.154V13.846L13.0929 15.1025H9.52562C9.4616 15.1025 9.40285 15.1292 9.34937 15.1827C9.2959 15.2362 9.26917 15.2949 9.26917 15.359V16.641C9.26917 16.7051 9.2959 16.7638 9.34937 16.8173C9.40285 16.8708 9.4616 16.8975 9.52562 16.8975H13.0929L15.2308 18.154ZM17.6346 18.5994V13.4006C17.9615 13.6966 18.2249 14.0694 18.4246 14.5192C18.6244 14.969 18.7244 15.4626 18.7244 16C18.7244 16.5374 18.6244 17.031 18.4246 17.4808C18.2249 17.9306 17.9615 18.3034 17.6346 18.5994Z" fill="#2B2342"/>
</g>
</svg>
