<svg width="129" height="44" viewBox="0 0 129 44" fill="none" xmlns="http://www.w3.org/2000/svg">
<path d="M33.4511 16.8588C31.0204 16.7789 27.9625 14.382 24.1203 15.9798V9.18893C29.7659 3.35644 34.2351 13.5832 41.1352 12.5446C40.6647 13.5034 39.9592 14.8248 36.7444 14.0261L38.1558 15.8272C36.7444 16.3066 35.4115 15.5012 34.0001 14.7021C33.5296 15.5012 34.3921 16.2201 34.3921 16.7793C34.1567 16.7789 33.7647 16.8588 33.4511 16.8588ZM8.47129 16.6991C8.47129 16.1399 9.33375 15.4206 8.86328 14.6219C7.45189 15.5008 6.11897 16.3063 4.70758 15.7471L6.11897 13.9459C2.90419 14.745 2.19867 13.4232 1.7282 12.4644C8.54975 13.5031 13.019 3.27661 18.743 9.10873V15.9C14.4304 14.0626 11.059 17.578 8.47129 16.6991Z" fill="#304BA0"/>
<path d="M21.4531 7.25716C23.3964 7.25716 24.9717 5.63259 24.9717 3.62858C24.9717 1.62457 23.3964 0 21.4531 0C19.5098 0 17.9345 1.62457 17.9345 3.62858C17.9345 5.63259 19.5098 7.25716 21.4531 7.25716Z" fill="#304BA0"/>
<path d="M21.453 44C21.2697 44 21.0938 43.9252 20.9641 43.7921C20.8345 43.659 20.7617 43.4785 20.7617 43.2903V7.01798C20.7617 6.82976 20.8345 6.64925 20.9641 6.51616C21.0938 6.38307 21.2697 6.3083 21.453 6.3083C21.6364 6.3083 21.8122 6.38307 21.9419 6.51616C22.0715 6.64925 22.1444 6.82976 22.1444 7.01798V43.2903C22.1444 43.4785 22.0715 43.659 21.9419 43.7921C21.8122 43.9252 21.6364 44 21.453 44Z" fill="#304BA0"/>
<path d="M27.5445 32.9283C27.0021 32.9283 26.6706 32.2875 26.9693 31.8258C27.4595 31.0683 27.9821 29.9452 27.6869 28.8949C27.2441 27.3201 25.0432 26.6118 23.7282 26.1885L23.4185 26.0881C21.79 25.5527 20.4084 25.6403 19.0717 25.724C17.3882 25.8301 15.7988 25.9302 14.2246 24.6833C13.4721 24.0875 12.2052 22.8037 12.1709 20.9018C12.1322 18.7759 13.6795 17.3662 14.1544 16.9844C14.2993 16.8742 14.4804 16.8264 14.6591 16.8513C14.8377 16.8761 14.9999 16.9716 15.111 17.1174C15.2221 17.2632 15.2734 17.4477 15.2538 17.6317C15.2343 17.8157 15.1456 17.9846 15.0065 18.1025C14.759 18.3012 13.526 19.3685 13.5533 20.8755C13.5768 22.1849 14.5132 23.1192 15.0694 23.5595C16.2326 24.481 17.448 24.404 18.9873 24.3072C20.3835 24.2192 21.9653 24.1195 23.8409 24.7362L24.1427 24.8337C25.7228 25.3422 28.3672 26.1935 29.016 28.5006C29.3662 29.7451 29.0568 31.1666 28.1214 32.6107C28.0584 32.7086 27.9727 32.7888 27.872 32.8442C27.7713 32.8996 27.6588 32.9285 27.5445 32.9283ZM25.5181 38.209C24.9754 38.209 24.6439 37.5682 24.9429 37.1066C25.2651 36.6091 25.6101 35.8767 25.4234 35.2124C25.1414 34.2089 23.6536 33.7303 22.7648 33.4443L22.5453 33.3733C21.4326 33.0071 20.4765 33.0674 19.5525 33.126C18.38 33.2005 17.1673 33.2764 15.9955 32.3485C15.4358 31.9053 14.4928 30.9483 14.4673 29.5187C14.4382 27.9237 15.5907 26.8712 15.9443 26.5866C16.0158 26.5292 16.0976 26.4867 16.1851 26.4617C16.2725 26.4367 16.3639 26.4296 16.4541 26.4408C16.5442 26.452 16.6313 26.4814 16.7104 26.5272C16.7895 26.573 16.859 26.6343 16.915 26.7076C16.971 26.781 17.0123 26.865 17.0367 26.9548C17.0611 27.0445 17.068 27.1384 17.0571 27.2309C17.0461 27.3234 17.0175 27.4128 16.9729 27.494C16.9283 27.5752 16.8686 27.6466 16.7971 27.704C16.6357 27.8339 15.832 28.5297 15.8496 29.4928C15.8648 30.3295 16.4767 30.9373 16.8403 31.2251C17.6005 31.8273 18.3838 31.7779 19.4678 31.7095C20.4706 31.6463 21.6072 31.575 22.9671 32.0217L23.1783 32.0902C24.3325 32.4617 26.2638 33.083 26.7519 34.8193C27.016 35.7582 26.7888 36.8213 26.0947 37.8929C26.0314 37.9903 25.9457 38.0701 25.8451 38.1252C25.7445 38.1804 25.6322 38.2092 25.5181 38.209ZM23.8931 43.0419C23.3508 43.0419 23.0193 42.4011 23.3179 41.9395C23.4711 41.7028 23.7127 41.2496 23.6079 40.8764C23.4548 40.3313 22.5395 40.0368 21.9923 39.8608L21.8447 39.8129C21.146 39.583 20.5318 39.622 19.9383 39.6593C19.1152 39.7114 18.2645 39.7646 17.4162 39.0929C16.7162 38.5376 16.3232 37.8038 16.3094 37.0264C16.2883 35.8554 17.1238 35.0907 17.3806 34.8842C17.5249 34.7681 17.7082 34.7155 17.8903 34.7382C18.0723 34.7608 18.2381 34.8567 18.3513 35.0048C18.4644 35.153 18.5156 35.3412 18.4935 35.528C18.4715 35.7149 18.378 35.8851 18.2337 36.0012C18.1414 36.0754 17.6824 36.4721 17.6917 36.9997C17.7 37.4568 18.0519 37.8031 18.2607 37.9688C18.6783 38.2995 19.0945 38.2906 19.8536 38.242C20.5072 38.2012 21.3203 38.1498 22.2664 38.4606L22.406 38.506C23.1648 38.7502 24.5772 39.2051 24.936 40.4821C25.131 41.1758 24.9699 41.9512 24.469 42.7244C24.4062 42.8222 24.3207 42.9024 24.2202 42.9579C24.1196 43.0133 24.0073 43.0422 23.8931 43.0419ZM27.9216 24.5971C27.1691 24.5971 26.9786 23.4836 27.6855 23.2203C28.772 22.8154 29.4851 21.8747 29.5027 20.8244C29.5193 19.8277 28.8871 18.8891 27.8922 18.4335C27.7287 18.3543 27.6019 18.2124 27.539 18.0383C27.4761 17.8642 27.4822 17.6717 27.5558 17.5022C27.6295 17.3326 27.765 17.1994 27.9332 17.1312C28.1014 17.0629 28.289 17.065 28.4557 17.1369C29.9577 17.825 30.9114 19.2816 30.8851 20.8482C30.8574 22.4922 29.7869 23.9466 28.1574 24.5541C28.0819 24.5825 28.0021 24.5971 27.9216 24.5971Z" fill="#304BA0"/>
<path d="M19.2037 43.4447C18.8003 43.4445 18.4096 43.3 18.0989 43.0359C17.7401 42.7304 17.5203 42.2893 17.4954 41.8259C17.4477 40.9225 18.1408 40.1145 19.0402 40.0248C19.2216 40.0087 19.4018 40.0667 19.5418 40.1862C19.6818 40.3058 19.7701 40.4771 19.7878 40.6631C19.8054 40.8491 19.7508 41.0348 19.6359 41.1797C19.521 41.3247 19.355 41.4173 19.174 41.4374C18.7516 41.4796 18.8352 42.0793 19.2469 42.0221C19.6565 41.965 20.0309 42.3057 20.0288 42.7293C20.0268 43.2077 19.6237 43.4447 19.2037 43.4447Z" fill="#304BA0"/>
<path d="M40.5232 29.1901C40.4799 29.2594 40.4019 29.2941 40.2892 29.2941C40.1765 29.2941 40.1029 29.2594 40.0682 29.1901C39.9902 29.0688 39.8819 28.8564 39.7432 28.5531C39.6045 28.2498 39.4442 27.8901 39.2622 27.4741C39.0889 27.0494 38.9025 26.5988 38.7032 26.1221C38.5125 25.6454 38.3262 25.1731 38.1442 24.7051C37.9622 24.2371 37.7932 23.7994 37.6372 23.3921C37.4812 22.9761 37.3555 22.6294 37.2602 22.3521H37.2082C37.1129 23.7301 37.0349 24.8654 36.9742 25.7581C36.9222 26.6421 36.8919 27.3138 36.8832 27.7731C36.8745 28.2238 36.9005 28.5314 36.9612 28.6961C37.0219 28.8608 37.1042 28.9431 37.2082 28.9431H37.7802C37.8409 28.9431 37.8842 28.9648 37.9102 29.0081C37.9362 29.0514 37.9492 29.0991 37.9492 29.1511C37.9492 29.2031 37.9362 29.2551 37.9102 29.3071C37.8842 29.3504 37.8409 29.3721 37.7802 29.3721C37.4595 29.3721 37.2039 29.3721 37.0132 29.3721C36.8312 29.3634 36.6319 29.3591 36.4152 29.3591C36.0772 29.3591 35.7522 29.3634 35.4402 29.3721C35.1369 29.3894 34.9159 29.3981 34.7772 29.3981C34.7425 29.3981 34.7122 29.3764 34.6862 29.3331C34.6689 29.2811 34.6602 29.2291 34.6602 29.1771C34.6602 29.1251 34.6689 29.0774 34.6862 29.0341C34.7122 28.9821 34.7425 28.9561 34.7772 28.9561H35.2062C35.4142 28.9561 35.5659 28.9388 35.6612 28.9041C35.7652 28.8694 35.8345 28.7698 35.8692 28.6051C35.8952 28.4318 35.9299 28.1761 35.9732 27.8381C36.0165 27.4914 36.0642 27.0971 36.1162 26.6551C36.1682 26.2044 36.2202 25.7451 36.2722 25.2771C36.3242 24.8091 36.3719 24.3628 36.4152 23.9381C36.4585 23.5134 36.4932 23.1494 36.5192 22.8461C36.5452 22.5428 36.5582 22.3391 36.5582 22.2351C36.5669 21.7758 36.5409 21.4638 36.4802 21.2991C36.4282 21.1258 36.3415 21.0391 36.2202 21.0391H35.5702C35.5355 21.0391 35.5095 21.0218 35.4922 20.9871C35.4749 20.9438 35.4662 20.9004 35.4662 20.8571C35.4662 20.8051 35.4749 20.7531 35.4922 20.7011C35.5095 20.6491 35.5355 20.6231 35.5702 20.6231C35.7609 20.6231 35.9949 20.6274 36.2722 20.6361C36.5495 20.6361 36.8399 20.6404 37.1432 20.6491C37.4552 20.6491 37.7499 20.6491 38.0272 20.6491C38.0705 20.7964 38.1572 21.0564 38.2872 21.4291C38.4172 21.8018 38.5732 22.2481 38.7552 22.7681C38.9459 23.2794 39.1495 23.8298 39.3662 24.4191C39.5829 24.9998 39.7952 25.5761 40.0032 26.1481C40.2112 26.7201 40.3975 27.2488 40.5622 27.7341H40.6142C40.9782 26.8154 41.3422 25.9141 41.7062 25.0301C42.0702 24.1461 42.3995 23.3271 42.6942 22.5731C42.9975 21.8191 43.2272 21.1778 43.3832 20.6491C43.7905 20.6491 44.1979 20.6448 44.6052 20.6361C45.0125 20.6188 45.3332 20.6101 45.5672 20.6101C45.6019 20.6101 45.6279 20.6404 45.6452 20.7011C45.6712 20.7618 45.6842 20.8181 45.6842 20.8701C45.6842 20.9828 45.6452 21.0391 45.5672 21.0391H45.0732C44.9085 21.0391 44.7959 21.0911 44.7352 21.1951C44.6832 21.2991 44.6615 21.4594 44.6702 21.6761C44.6702 21.7454 44.6832 21.9578 44.7092 22.3131C44.7439 22.6598 44.7872 23.0888 44.8392 23.6001C44.8912 24.1028 44.9432 24.6401 44.9952 25.2121C45.0559 25.7754 45.1122 26.3214 45.1642 26.8501C45.2249 27.3701 45.2769 27.8164 45.3202 28.1891C45.3375 28.3711 45.3679 28.5444 45.4112 28.7091C45.4632 28.8651 45.5325 28.9431 45.6192 28.9431H46.4382C46.4815 28.9431 46.5162 28.9648 46.5422 29.0081C46.5682 29.0514 46.5812 29.0991 46.5812 29.1511C46.5812 29.2118 46.5682 29.2638 46.5422 29.3071C46.5162 29.3504 46.4815 29.3721 46.4382 29.3721C46.2995 29.3721 46.1175 29.3721 45.8922 29.3721C45.6669 29.3634 45.4459 29.3591 45.2292 29.3591C45.0125 29.3591 44.8479 29.3591 44.7352 29.3591C44.5879 29.3591 44.3972 29.3634 44.1632 29.3721C43.9292 29.3721 43.7039 29.3764 43.4872 29.3851C43.2705 29.3938 43.1189 29.3981 43.0322 29.3981C42.9975 29.3981 42.9715 29.3721 42.9542 29.3201C42.9369 29.2681 42.9282 29.2161 42.9282 29.1641C42.9282 29.1121 42.9369 29.0644 42.9542 29.0211C42.9715 28.9778 42.9975 28.9561 43.0322 28.9561H43.5262C43.8469 28.9561 43.9942 28.8174 43.9682 28.5401C43.9595 28.4014 43.9422 28.1804 43.9162 27.8771C43.8989 27.5738 43.8729 27.2228 43.8382 26.8241C43.8035 26.4168 43.7689 25.9921 43.7342 25.5501C43.6995 25.1081 43.6692 24.6834 43.6432 24.2761C43.6172 23.8601 43.5912 23.4961 43.5652 23.1841C43.5479 22.8634 43.5392 22.6251 43.5392 22.4691H43.4872C43.3572 22.7464 43.1882 23.1234 42.9802 23.6001C42.7809 24.0681 42.5599 24.5794 42.3172 25.1341C42.0832 25.6801 41.8492 26.2218 41.6152 26.7591C41.3812 27.2964 41.1645 27.7818 40.9652 28.2151C40.7745 28.6484 40.6272 28.9734 40.5232 29.1901ZM49.7518 26.0701C50.0291 26.0614 50.2934 26.0484 50.5448 26.0311C50.8048 26.0138 51.0214 25.9964 51.1948 25.9791C51.3681 25.9531 51.4634 25.9358 51.4808 25.9271L51.5718 25.3811C51.5891 25.3378 51.6498 25.3161 51.7538 25.3161C51.7798 25.3161 51.8144 25.3248 51.8578 25.3421C51.9011 25.3508 51.9228 25.3724 51.9228 25.4071C51.9054 25.5458 51.8924 25.6801 51.8838 25.8101C51.8751 25.9314 51.8708 26.0658 51.8708 26.2131C51.8708 26.3431 51.8751 26.4861 51.8838 26.6421C51.8924 26.7894 51.9054 26.9368 51.9228 27.0841C51.9228 27.1101 51.8968 27.1318 51.8448 27.1491C51.8014 27.1578 51.7581 27.1621 51.7148 27.1621C51.6801 27.1621 51.6454 27.1578 51.6108 27.1491C51.5848 27.1404 51.5718 27.1274 51.5718 27.1101L51.4678 26.5511C51.4504 26.5338 51.3551 26.5164 51.1818 26.4991C51.0171 26.4818 50.8091 26.4644 50.5578 26.4471C50.3064 26.4298 50.0378 26.4168 49.7518 26.4081V27.9811C49.7518 28.3451 49.7778 28.6008 49.8298 28.7481C49.8818 28.8868 49.9424 28.9561 50.0118 28.9561H50.4278C50.8351 28.9474 51.2208 28.9084 51.5848 28.8391C51.9574 28.7698 52.2304 28.6744 52.4038 28.5531L52.4688 28.0461C52.4774 28.0201 52.5034 28.0028 52.5468 27.9941C52.5988 27.9768 52.6421 27.9681 52.6768 27.9681C52.7201 27.9681 52.7591 27.9724 52.7938 27.9811C52.8284 27.9898 52.8414 28.0114 52.8328 28.0461C52.7981 28.2714 52.7764 28.5271 52.7678 28.8131C52.7591 29.0904 52.7548 29.3461 52.7548 29.5801C52.7548 29.6061 52.7331 29.6234 52.6898 29.6321C52.6551 29.6408 52.6248 29.6451 52.5988 29.6451C52.5641 29.6451 52.5208 29.6408 52.4688 29.6321C52.4254 29.6234 52.4038 29.6061 52.4038 29.5801V29.3721H50.0898C49.5611 29.3721 49.1538 29.3721 48.8678 29.3721C48.5818 29.3808 48.3694 29.3851 48.2308 29.3851C48.0921 29.3938 47.9751 29.3981 47.8798 29.3981C47.8451 29.3981 47.8191 29.3721 47.8018 29.3201C47.7931 29.2681 47.7888 29.2248 47.7888 29.1901C47.7888 29.1468 47.7931 29.1078 47.8018 29.0731C47.8191 29.0298 47.8408 29.0081 47.8668 29.0081H48.4518C48.5471 29.0081 48.6034 28.9864 48.6208 28.9431C48.6381 28.8998 48.6468 28.7958 48.6468 28.6311V24.5361C48.6468 24.1721 48.6208 23.9078 48.5688 23.7431C48.5254 23.5784 48.4648 23.4961 48.3868 23.4961H47.9188C47.8148 23.4961 47.7628 23.4311 47.7628 23.3011C47.7628 23.1624 47.8104 23.0931 47.9058 23.0931C48.0704 23.0931 48.2698 23.0974 48.5038 23.1061C48.7464 23.1148 48.9891 23.1191 49.2318 23.1191H51.9228V22.9111C51.9228 22.8851 51.9401 22.8678 51.9748 22.8591C52.0094 22.8418 52.0441 22.8331 52.0788 22.8331C52.1134 22.8331 52.1524 22.8418 52.1958 22.8591C52.2478 22.8678 52.2738 22.8851 52.2738 22.9111C52.2738 23.1451 52.2781 23.4008 52.2868 23.6781C52.3041 23.9554 52.3301 24.1894 52.3648 24.3801C52.3734 24.4061 52.3604 24.4278 52.3258 24.4451C52.2911 24.4538 52.2564 24.4581 52.2218 24.4581C52.1871 24.4581 52.1394 24.4538 52.0788 24.4451C52.0268 24.4278 52.0008 24.4061 52.0008 24.3801C51.9661 24.2588 51.9228 24.1288 51.8708 23.9901C51.8274 23.8514 51.7538 23.7561 51.6498 23.7041C51.4851 23.6434 51.2814 23.5958 51.0388 23.5611C50.7961 23.5264 50.4711 23.5091 50.0638 23.5091C49.9424 23.5178 49.8601 23.5568 49.8168 23.6261C49.7734 23.6868 49.7518 23.7908 49.7518 23.9381V26.0701ZM56.9641 23.1191C57.7441 23.1191 58.4158 23.2664 58.9791 23.5611C59.5425 23.8471 59.9758 24.2284 60.2791 24.7051C60.5911 25.1818 60.7471 25.7018 60.7471 26.2651C60.7471 26.9064 60.5868 27.4611 60.2661 27.9291C59.9541 28.3971 59.5251 28.7568 58.9791 29.0081C58.4331 29.2508 57.8221 29.3721 57.1461 29.3721H55.7291C55.4865 29.3721 55.2915 29.3721 55.1441 29.3721C55.0055 29.3808 54.8755 29.3851 54.7541 29.3851C54.6415 29.3938 54.5028 29.3981 54.3381 29.3981C54.3121 29.3981 54.2905 29.3764 54.2731 29.3331C54.2558 29.2811 54.2471 29.2378 54.2471 29.2031C54.2471 29.1598 54.2515 29.1164 54.2601 29.0731C54.2775 29.0298 54.2948 29.0081 54.3121 29.0081H54.9491C55.0531 29.0081 55.1051 28.9344 55.1051 28.7871V24.5231C55.1051 23.8384 55.0098 23.4961 54.8191 23.4961H54.3641C54.2688 23.4961 54.2211 23.4311 54.2211 23.3011C54.2211 23.2491 54.2298 23.2014 54.2471 23.1581C54.2731 23.1148 54.3035 23.0931 54.3381 23.0931C54.3381 23.0931 54.4768 23.0974 54.7541 23.1061C55.0401 23.1148 55.3565 23.1191 55.7031 23.1191H56.9641ZM56.9511 28.9561C57.7745 28.9561 58.3941 28.7264 58.8101 28.2671C59.2261 27.7991 59.4341 27.2098 59.4341 26.4991C59.4341 25.9444 59.3345 25.4461 59.1351 25.0041C58.9445 24.5621 58.6368 24.2111 58.2121 23.9511C57.7961 23.6824 57.2458 23.5351 56.5611 23.5091C56.3271 23.4918 56.2101 23.6174 56.2101 23.8861V27.9421C56.2101 28.2974 56.2318 28.5574 56.2751 28.7221C56.3271 28.8781 56.3965 28.9561 56.4831 28.9561H56.9511ZM65.6361 22.9501C66.0955 22.9501 66.5331 23.0368 66.9491 23.2101C67.3738 23.3834 67.7465 23.6218 68.0671 23.9251C68.3965 24.2284 68.6521 24.5794 68.8341 24.9781C69.0248 25.3681 69.1201 25.7841 69.1201 26.2261C69.1201 26.6768 69.0248 27.1014 68.8341 27.5001C68.6521 27.8988 68.3965 28.2541 68.0671 28.5661C67.7465 28.8694 67.3738 29.1078 66.9491 29.2811C66.5331 29.4544 66.0955 29.5411 65.6361 29.5411C65.1768 29.5411 64.7348 29.4544 64.3101 29.2811C63.8941 29.1078 63.5215 28.8694 63.1921 28.5661C62.8715 28.2541 62.6158 27.8988 62.4251 27.5001C62.2431 27.1014 62.1521 26.6768 62.1521 26.2261C62.1521 25.7841 62.2431 25.3681 62.4251 24.9781C62.6158 24.5794 62.8715 24.2284 63.1921 23.9251C63.5215 23.6218 63.8941 23.3834 64.3101 23.2101C64.7348 23.0368 65.1768 22.9501 65.6361 22.9501ZM65.6361 23.4181C65.1941 23.4181 64.8085 23.5481 64.4791 23.8081C64.1585 24.0594 63.9071 24.3974 63.7251 24.8221C63.5431 25.2468 63.4521 25.7148 63.4521 26.2261C63.4521 26.7374 63.5431 27.2098 63.7251 27.6431C63.9071 28.0764 64.1585 28.4231 64.4791 28.6831C64.8085 28.9431 65.1941 29.0731 65.6361 29.0731C66.0781 29.0731 66.4595 28.9431 66.7801 28.6831C67.1095 28.4231 67.3651 28.0764 67.5471 27.6431C67.7291 27.2098 67.8201 26.7374 67.8201 26.2261C67.8201 25.7148 67.7291 25.2468 67.5471 24.8221C67.3651 24.3974 67.1095 24.0594 66.7801 23.8081C66.4595 23.5481 66.0781 23.4181 65.6361 23.4181ZM70.5281 26.4601C70.5281 25.9228 70.6278 25.4418 70.8271 25.0171C71.0351 24.5838 71.3168 24.2154 71.6721 23.9121C72.0274 23.6001 72.4304 23.3618 72.8811 23.1971C73.3404 23.0324 73.8171 22.9501 74.3111 22.9501C74.6058 22.9501 74.8744 22.9891 75.1171 23.0671C75.3684 23.1364 75.5938 23.2231 75.7931 23.3271V23.1061C75.7931 23.0454 75.8451 23.0151 75.9491 23.0151C75.9838 23.0151 76.0184 23.0238 76.0531 23.0411C76.0964 23.0498 76.1181 23.0714 76.1181 23.1061C76.1181 23.3401 76.1311 23.6261 76.1571 23.9641C76.1831 24.3021 76.2134 24.5838 76.2481 24.8091C76.2568 24.8438 76.2394 24.8698 76.1961 24.8871C76.1614 24.9044 76.1224 24.9131 76.0791 24.9131C76.0444 24.9131 76.0054 24.9044 75.9621 24.8871C75.9188 24.8698 75.8928 24.8438 75.8841 24.8091L75.7801 24.1201C75.5201 23.8688 75.2558 23.6911 74.9871 23.5871C74.7184 23.4831 74.4238 23.4311 74.1031 23.4311C73.6958 23.4311 73.3188 23.5524 72.9721 23.7951C72.6254 24.0378 72.3481 24.3714 72.1401 24.7961C71.9321 25.2121 71.8281 25.6931 71.8281 26.2391C71.8281 26.7851 71.9364 27.2704 72.1531 27.6951C72.3784 28.1198 72.6731 28.4534 73.0371 28.6961C73.4011 28.9388 73.8041 29.0601 74.2461 29.0601C74.5668 29.0601 74.8614 29.0168 75.1301 28.9301C75.4074 28.8348 75.6891 28.6918 75.9751 28.5011L76.0401 27.7601C76.0401 27.6908 76.0964 27.6561 76.2091 27.6561C76.2438 27.6561 76.2871 27.6648 76.3391 27.6821C76.3911 27.6908 76.4128 27.7168 76.4041 27.7601C76.3781 27.8901 76.3608 28.0548 76.3521 28.2541C76.3434 28.4534 76.3348 28.6571 76.3261 28.8651C76.3261 29.0644 76.3261 29.2421 76.3261 29.3981C76.3261 29.4241 76.3001 29.4414 76.2481 29.4501C76.2048 29.4674 76.1658 29.4761 76.1311 29.4761C76.0271 29.4761 75.9751 29.4501 75.9751 29.3981V29.1771C75.3771 29.4198 74.7834 29.5411 74.1941 29.5411C73.5008 29.5411 72.8768 29.4154 72.3221 29.1641C71.7674 28.9128 71.3298 28.5574 71.0091 28.0981C70.6884 27.6388 70.5281 27.0928 70.5281 26.4601ZM84.1931 27.7991C84.1931 28.1284 84.2061 28.3754 84.2321 28.5401C84.2668 28.7048 84.3058 28.8131 84.3491 28.8651C84.3925 28.9171 84.4315 28.9431 84.4661 28.9431H85.2201C85.2635 28.9431 85.2938 28.9691 85.3111 29.0211C85.3371 29.0731 85.3501 29.1294 85.3501 29.1901C85.3501 29.3114 85.3068 29.3721 85.2201 29.3721H84.6611C84.5745 29.3721 84.4835 29.3721 84.3881 29.3721C84.2928 29.3634 84.1975 29.3591 84.1021 29.3591H83.5821C83.2181 29.3591 82.9278 29.3634 82.7111 29.3721C82.4945 29.3721 82.3168 29.3764 82.1781 29.3851C82.0395 29.3938 81.9008 29.3981 81.7621 29.3981C81.7275 29.3981 81.7015 29.3764 81.6841 29.3331C81.6668 29.2898 81.6581 29.2421 81.6581 29.1901C81.6581 29.1294 81.6668 29.0774 81.6841 29.0341C81.7015 28.9821 81.7275 28.9561 81.7621 28.9561H82.3211C82.5465 28.9561 82.6895 28.9128 82.7501 28.8261C82.8195 28.7394 82.8541 28.5834 82.8541 28.3581V22.1961C82.8541 21.8581 82.8368 21.6111 82.8021 21.4551C82.7761 21.2904 82.7415 21.1821 82.6981 21.1301C82.6635 21.0781 82.6245 21.0521 82.5811 21.0521H81.8271C81.7578 21.0521 81.7231 20.9698 81.7231 20.8051C81.7231 20.7618 81.7275 20.7228 81.7361 20.6881C81.7535 20.6448 81.7838 20.6231 81.8271 20.6231C82.1825 20.6231 82.4945 20.6274 82.7631 20.6361C83.0405 20.6448 83.2745 20.6491 83.4651 20.6491H84.9601C85.7748 20.6491 86.4335 20.7574 86.9361 20.9741C87.4388 21.1908 87.8071 21.4768 88.0411 21.8321C88.2838 22.1788 88.4051 22.5471 88.4051 22.9371C88.4051 23.3358 88.2881 23.7214 88.0541 24.0941C87.8288 24.4668 87.5038 24.7744 87.0791 25.0171C86.6631 25.2598 86.1648 25.3811 85.5841 25.3811C85.3761 25.3811 85.1551 25.3594 84.9211 25.3161C84.6871 25.2641 84.4445 25.1818 84.1931 25.0691V27.7991ZM87.0011 23.0411C87.0011 22.7291 86.9188 22.4301 86.7541 22.1441C86.5895 21.8581 86.3338 21.6241 85.9871 21.4421C85.6405 21.2601 85.1985 21.1691 84.6611 21.1691C84.4965 21.1691 84.3751 21.2124 84.2971 21.2991C84.2278 21.3771 84.1931 21.5331 84.1931 21.7671V24.6531C84.4271 24.7051 84.6568 24.7311 84.8821 24.7311C85.3501 24.7311 85.7401 24.6531 86.0521 24.4971C86.3641 24.3324 86.5981 24.1244 86.7541 23.8731C86.9188 23.6131 87.0011 23.3358 87.0011 23.0411ZM95.876 27.9811C95.876 28.3451 95.902 28.6008 95.954 28.7481C96.006 28.8954 96.0666 28.9691 96.136 28.9691H96.786C96.812 28.9691 96.8336 28.9908 96.851 29.0341C96.877 29.0774 96.89 29.1294 96.89 29.1901C96.89 29.2334 96.8813 29.2768 96.864 29.3201C96.8553 29.3548 96.838 29.3721 96.812 29.3721C96.656 29.3721 96.4523 29.3721 96.201 29.3721C95.9496 29.3634 95.6506 29.3591 95.304 29.3591C94.888 29.3591 94.5933 29.3634 94.42 29.3721C94.2466 29.3894 94.108 29.3981 94.004 29.3981C93.9693 29.3981 93.9433 29.3721 93.926 29.3201C93.9173 29.2681 93.913 29.2248 93.913 29.1901C93.913 29.1468 93.9173 29.1078 93.926 29.0731C93.9433 29.0298 93.965 29.0081 93.991 29.0081H94.576C94.6713 29.0081 94.7276 28.9864 94.745 28.9431C94.7623 28.8998 94.771 28.7958 94.771 28.6311V26.5121H91.625V27.9811C91.625 28.3451 91.651 28.6008 91.703 28.7481C91.755 28.8954 91.8156 28.9691 91.885 28.9691H92.535C92.561 28.9691 92.5826 28.9908 92.6 29.0341C92.626 29.0774 92.639 29.1294 92.639 29.1901C92.639 29.2334 92.6303 29.2768 92.613 29.3201C92.6043 29.3548 92.587 29.3721 92.561 29.3721C92.405 29.3721 92.2013 29.3721 91.95 29.3721C91.6986 29.3634 91.3996 29.3591 91.053 29.3591C90.637 29.3591 90.3423 29.3634 90.169 29.3721C89.9956 29.3894 89.857 29.3981 89.753 29.3981C89.7183 29.3981 89.6923 29.3721 89.675 29.3201C89.6663 29.2681 89.662 29.2248 89.662 29.1901C89.662 29.1468 89.6663 29.1078 89.675 29.0731C89.6923 29.0298 89.714 29.0081 89.74 29.0081H90.325C90.4203 29.0081 90.4766 28.9864 90.494 28.9431C90.5113 28.8998 90.52 28.7958 90.52 28.6311V24.5361C90.52 24.1721 90.494 23.9078 90.442 23.7431C90.3986 23.5784 90.338 23.4961 90.26 23.4961H89.792C89.688 23.4961 89.636 23.4311 89.636 23.3011C89.636 23.1624 89.6836 23.0931 89.779 23.0931C89.9436 23.0931 90.1386 23.1018 90.364 23.1191C90.5893 23.1278 90.819 23.1278 91.053 23.1191C91.209 23.1191 91.391 23.1191 91.599 23.1191C91.8156 23.1104 92.002 23.1061 92.158 23.1061C92.3226 23.0974 92.405 23.0931 92.405 23.0931C92.431 23.0931 92.4526 23.1148 92.47 23.1581C92.4873 23.2014 92.496 23.2448 92.496 23.2881C92.496 23.4094 92.4613 23.4701 92.392 23.4701H91.794C91.7333 23.4701 91.69 23.4831 91.664 23.5091C91.638 23.5351 91.625 23.5914 91.625 23.6781V26.0181H94.771V24.5361C94.771 24.1721 94.745 23.9078 94.693 23.7431C94.6496 23.5784 94.589 23.4961 94.511 23.4961H94.043C93.939 23.4961 93.887 23.4311 93.887 23.3011C93.887 23.1624 93.9346 23.0931 94.03 23.0931C94.1946 23.0931 94.3896 23.1018 94.615 23.1191C94.8403 23.1278 95.07 23.1278 95.304 23.1191C95.46 23.1191 95.642 23.1191 95.85 23.1191C96.0666 23.1104 96.253 23.1061 96.409 23.1061C96.5736 23.0974 96.656 23.0931 96.656 23.0931C96.682 23.0931 96.7036 23.1148 96.721 23.1581C96.7383 23.2014 96.747 23.2448 96.747 23.2881C96.747 23.4094 96.7123 23.4701 96.643 23.4701H96.045C95.9843 23.4701 95.941 23.4831 95.915 23.5091C95.889 23.5351 95.876 23.5914 95.876 23.6781V27.9811ZM101.099 23.0671C101.134 22.9891 101.221 22.9501 101.359 22.9501C101.489 22.9501 101.572 22.9934 101.606 23.0801C101.65 23.2708 101.732 23.5351 101.853 23.8731C101.983 24.2111 102.135 24.5924 102.308 25.0171C102.482 25.4331 102.659 25.8621 102.841 26.3041C103.032 26.7374 103.214 27.1534 103.387 27.5521C103.569 27.9421 103.725 28.2758 103.855 28.5531C103.959 28.7698 104.055 28.9084 104.141 28.9691C104.228 29.0211 104.362 29.0471 104.544 29.0471C104.596 29.0471 104.622 29.0991 104.622 29.2031C104.622 29.2464 104.618 29.2898 104.609 29.3331C104.601 29.3764 104.583 29.3981 104.557 29.3981C104.289 29.3981 104.063 29.3938 103.881 29.3851C103.699 29.3764 103.509 29.3721 103.309 29.3721C103.145 29.3721 102.945 29.3764 102.711 29.3851C102.477 29.3938 102.209 29.3981 101.905 29.3981C101.871 29.3981 101.849 29.3808 101.84 29.3461C101.832 29.3028 101.827 29.2638 101.827 29.2291C101.827 29.1164 101.853 29.0601 101.905 29.0601H102.529C102.625 29.0601 102.672 29.0211 102.672 28.9431C102.672 28.9171 102.638 28.8088 102.568 28.6181C102.499 28.4274 102.408 28.1848 102.295 27.8901C102.191 27.5954 102.074 27.2791 101.944 26.9411H100.137C99.9552 27.3918 99.8036 27.7818 99.6822 28.1111C99.5609 28.4404 99.5002 28.6658 99.5002 28.7871C99.5002 28.8911 99.5176 28.9604 99.5522 28.9951C99.5869 29.0298 99.6216 29.0471 99.6562 29.0471H100.189C100.259 29.0471 100.293 29.0991 100.293 29.2031C100.293 29.2464 100.285 29.2898 100.267 29.3331C100.259 29.3764 100.241 29.3981 100.215 29.3981C99.9986 29.3981 99.8252 29.3938 99.6952 29.3851C99.5739 29.3851 99.4612 29.3808 99.3572 29.3721C99.2619 29.3721 99.1492 29.3721 99.0192 29.3721C98.8632 29.3721 98.7072 29.3764 98.5512 29.3851C98.4039 29.3938 98.2176 29.3981 97.9922 29.3981C97.9576 29.3981 97.9316 29.3808 97.9142 29.3461C97.9056 29.3028 97.9012 29.2638 97.9012 29.2291C97.9012 29.1164 97.9316 29.0601 97.9922 29.0601H98.4082C98.5036 29.0601 98.5729 29.0211 98.6162 28.9431C98.7029 28.8044 98.8242 28.5618 98.9802 28.2151C99.1449 27.8598 99.3269 27.4481 99.5262 26.9801C99.7256 26.5121 99.9249 26.0311 100.124 25.5371C100.332 25.0431 100.523 24.5794 100.696 24.1461C100.87 23.7041 101.004 23.3444 101.099 23.0671ZM101.775 26.4991C101.654 26.1438 101.533 25.7928 101.411 25.4461C101.299 25.0994 101.195 24.7918 101.099 24.5231H101.06C100.948 24.8438 100.826 25.1774 100.696 25.5241C100.566 25.8708 100.441 26.1958 100.319 26.4991H101.775ZM107.627 28.1111C107.627 28.3971 107.653 28.6138 107.705 28.7611C107.757 28.8998 107.817 28.9691 107.887 28.9691H108.433C108.467 28.9691 108.493 28.9951 108.511 29.0471C108.528 29.0991 108.537 29.1468 108.537 29.1901C108.537 29.2334 108.528 29.2768 108.511 29.3201C108.502 29.3548 108.489 29.3721 108.472 29.3721H107.146C106.903 29.3721 106.708 29.3721 106.561 29.3721C106.422 29.3808 106.292 29.3851 106.171 29.3851C106.058 29.3938 105.919 29.3981 105.755 29.3981C105.729 29.3981 105.707 29.3764 105.69 29.3331C105.672 29.2811 105.664 29.2378 105.664 29.2031C105.664 29.1598 105.668 29.1164 105.677 29.0731C105.694 29.0298 105.711 29.0081 105.729 29.0081H106.366C106.47 29.0081 106.522 28.9344 106.522 28.7871V24.5231C106.522 23.8384 106.426 23.4961 106.236 23.4961H105.781C105.685 23.4961 105.638 23.4311 105.638 23.3011C105.638 23.2491 105.646 23.2014 105.664 23.1581C105.69 23.1148 105.72 23.0931 105.755 23.0931C105.755 23.0931 105.867 23.0974 106.093 23.1061C106.318 23.1061 106.608 23.1104 106.964 23.1191C107.328 23.1191 107.709 23.1191 108.108 23.1191C108.957 23.1191 109.594 23.2968 110.019 23.6521C110.452 24.0074 110.669 24.4364 110.669 24.9391C110.669 25.2598 110.582 25.5414 110.409 25.7841C110.244 26.0268 110.023 26.2218 109.746 26.3691C109.468 26.5078 109.169 26.5901 108.849 26.6161C109.022 26.7288 109.178 26.8761 109.317 27.0581C109.464 27.2314 109.629 27.4308 109.811 27.6561C110.001 27.8728 110.231 28.0981 110.5 28.3321C110.777 28.5661 111.132 28.7958 111.566 29.0211C111.496 29.1598 111.392 29.2811 111.254 29.3851C111.115 29.4891 110.946 29.5411 110.747 29.5411C110.452 29.5411 110.196 29.4588 109.98 29.2941C109.772 29.1294 109.59 28.9214 109.434 28.6701C109.278 28.4188 109.135 28.1588 109.005 27.8901C108.883 27.6128 108.758 27.3614 108.628 27.1361C108.506 26.9108 108.372 26.7461 108.225 26.6421L107.627 26.6031V28.1111ZM107.887 23.5091C107.713 23.5091 107.627 23.6521 107.627 23.9381V26.0961C107.748 26.1221 107.869 26.1351 107.991 26.1351C108.233 26.1351 108.463 26.0918 108.68 26.0051C108.905 25.9098 109.087 25.7711 109.226 25.5891C109.364 25.3984 109.434 25.1688 109.434 24.9001C109.434 24.7008 109.382 24.4928 109.278 24.2761C109.182 24.0594 109.022 23.8774 108.797 23.7301C108.571 23.5828 108.268 23.5091 107.887 23.5091ZM120.094 23.4701C119.929 23.4701 119.838 23.5524 119.821 23.7171C119.803 23.8731 119.812 24.1201 119.847 24.4581C119.89 24.9001 119.933 25.3768 119.977 25.8881C120.029 26.3908 120.076 26.8674 120.12 27.3181C120.172 27.7688 120.215 28.1371 120.25 28.4231C120.267 28.5531 120.293 28.6788 120.328 28.8001C120.362 28.9128 120.41 28.9691 120.471 28.9691H121.043C121.077 28.9691 121.103 28.9951 121.121 29.0471C121.147 29.0904 121.16 29.1381 121.16 29.1901C121.16 29.3114 121.125 29.3721 121.056 29.3721C120.96 29.3721 120.826 29.3721 120.653 29.3721C120.479 29.3634 120.31 29.3591 120.146 29.3591C119.99 29.3591 119.868 29.3591 119.782 29.3591C119.678 29.3591 119.53 29.3634 119.34 29.3721C119.158 29.3721 118.98 29.3764 118.807 29.3851C118.642 29.3938 118.529 29.3981 118.469 29.3981C118.434 29.3981 118.408 29.3764 118.391 29.3331C118.382 29.2811 118.378 29.2378 118.378 29.2031C118.378 29.0731 118.404 29.0081 118.456 29.0081H118.859C119.093 29.0081 119.201 28.9084 119.184 28.7091C119.175 28.6051 119.162 28.4274 119.145 28.1761C119.127 27.9248 119.106 27.6344 119.08 27.3051C119.054 26.9758 119.028 26.6378 119.002 26.2911C118.976 25.9444 118.954 25.6238 118.937 25.3291C118.919 25.0258 118.906 24.7788 118.898 24.5881H118.846C118.664 24.9781 118.469 25.4071 118.261 25.8751C118.053 26.3431 117.849 26.8024 117.65 27.2531C117.459 27.7038 117.29 28.1024 117.143 28.4491C117.004 28.7958 116.904 29.0471 116.844 29.2031C116.809 29.2811 116.722 29.3201 116.584 29.3201C116.454 29.3201 116.371 29.2768 116.337 29.1901C116.25 28.9648 116.129 28.6701 115.973 28.3061C115.825 27.9334 115.661 27.5261 115.479 27.0841C115.305 26.6421 115.128 26.1958 114.946 25.7451C114.764 25.2944 114.595 24.8741 114.439 24.4841H114.4C114.27 26.2781 114.205 27.4914 114.205 28.1241C114.196 28.4534 114.213 28.6788 114.257 28.8001C114.3 28.9128 114.361 28.9691 114.439 28.9691H114.842C114.885 28.9691 114.915 28.9951 114.933 29.0471C114.959 29.0904 114.972 29.1338 114.972 29.1771C114.972 29.3071 114.928 29.3721 114.842 29.3721C114.616 29.3721 114.426 29.3721 114.27 29.3721C114.114 29.3634 113.958 29.3591 113.802 29.3591C113.559 29.3591 113.316 29.3634 113.074 29.3721C112.831 29.3894 112.658 29.3981 112.554 29.3981C112.528 29.3981 112.506 29.3764 112.489 29.3331C112.48 29.2811 112.476 29.2378 112.476 29.2031C112.476 29.1598 112.48 29.1164 112.489 29.0731C112.506 29.0298 112.532 29.0081 112.567 29.0081H112.879C113.026 29.0081 113.134 28.9951 113.204 28.9691C113.282 28.9431 113.334 28.8694 113.36 28.7481C113.386 28.6008 113.416 28.3711 113.451 28.0591C113.494 27.7471 113.537 27.3961 113.581 27.0061C113.624 26.6161 113.663 26.2348 113.698 25.8621C113.741 25.4808 113.776 25.1514 113.802 24.8741C113.828 24.5881 113.841 24.4018 113.841 24.3151C113.841 23.9858 113.819 23.7691 113.776 23.6651C113.741 23.5524 113.672 23.4961 113.568 23.4961H113.204C113.152 23.4961 113.126 23.4268 113.126 23.2881C113.126 23.1581 113.152 23.0931 113.204 23.0931C113.446 23.0931 113.654 23.1018 113.828 23.1191C114.01 23.1278 114.218 23.1321 114.452 23.1321H115.063C115.184 23.4701 115.318 23.8514 115.466 24.2761C115.622 24.6921 115.778 25.1168 115.934 25.5501C116.09 25.9748 116.241 26.3864 116.389 26.7851C116.536 27.1838 116.666 27.5348 116.779 27.8381H116.831C117.013 27.4394 117.199 27.0104 117.39 26.5511C117.589 26.0831 117.775 25.6238 117.949 25.1731C118.122 24.7224 118.274 24.3194 118.404 23.9641C118.542 23.6001 118.646 23.3228 118.716 23.1321C118.82 23.1321 118.976 23.1278 119.184 23.1191C119.4 23.1104 119.621 23.1061 119.847 23.1061C120.081 23.0974 120.271 23.0931 120.419 23.0931C120.453 23.0931 120.479 23.1148 120.497 23.1581C120.514 23.1928 120.523 23.2318 120.523 23.2751C120.523 23.3184 120.514 23.3618 120.497 23.4051C120.479 23.4484 120.453 23.4701 120.419 23.4701H120.094ZM125.286 23.0671C125.32 22.9891 125.407 22.9501 125.546 22.9501C125.676 22.9501 125.758 22.9934 125.793 23.0801C125.836 23.2708 125.918 23.5351 126.04 23.8731C126.17 24.2111 126.321 24.5924 126.495 25.0171C126.668 25.4331 126.846 25.8621 127.028 26.3041C127.218 26.7374 127.4 27.1534 127.574 27.5521C127.756 27.9421 127.912 28.2758 128.042 28.5531C128.146 28.7698 128.241 28.9084 128.328 28.9691C128.414 29.0211 128.549 29.0471 128.731 29.0471C128.783 29.0471 128.809 29.0991 128.809 29.2031C128.809 29.2464 128.804 29.2898 128.796 29.3331C128.787 29.3764 128.77 29.3981 128.744 29.3981C128.475 29.3981 128.25 29.3938 128.068 29.3851C127.886 29.3764 127.695 29.3721 127.496 29.3721C127.331 29.3721 127.132 29.3764 126.898 29.3851C126.664 29.3938 126.395 29.3981 126.092 29.3981C126.057 29.3981 126.035 29.3808 126.027 29.3461C126.018 29.3028 126.014 29.2638 126.014 29.2291C126.014 29.1164 126.04 29.0601 126.092 29.0601H126.716C126.811 29.0601 126.859 29.0211 126.859 28.9431C126.859 28.9171 126.824 28.8088 126.755 28.6181C126.685 28.4274 126.594 28.1848 126.482 27.8901C126.378 27.5954 126.261 27.2791 126.131 26.9411H124.324C124.142 27.3918 123.99 27.7818 123.869 28.1111C123.747 28.4404 123.687 28.6658 123.687 28.7871C123.687 28.8911 123.704 28.9604 123.739 28.9951C123.773 29.0298 123.808 29.0471 123.843 29.0471H124.376C124.445 29.0471 124.48 29.0991 124.48 29.2031C124.48 29.2464 124.471 29.2898 124.454 29.3331C124.445 29.3764 124.428 29.3981 124.402 29.3981C124.185 29.3981 124.012 29.3938 123.882 29.3851C123.76 29.3851 123.648 29.3808 123.544 29.3721C123.448 29.3721 123.336 29.3721 123.206 29.3721C123.05 29.3721 122.894 29.3764 122.738 29.3851C122.59 29.3938 122.404 29.3981 122.179 29.3981C122.144 29.3981 122.118 29.3808 122.101 29.3461C122.092 29.3028 122.088 29.2638 122.088 29.2291C122.088 29.1164 122.118 29.0601 122.179 29.0601H122.595C122.69 29.0601 122.759 29.0211 122.803 28.9431C122.889 28.8044 123.011 28.5618 123.167 28.2151C123.331 27.8598 123.513 27.4481 123.713 26.9801C123.912 26.5121 124.111 26.0311 124.311 25.5371C124.519 25.0431 124.709 24.5794 124.883 24.1461C125.056 23.7041 125.19 23.3444 125.286 23.0671ZM125.962 26.4991C125.84 26.1438 125.719 25.7928 125.598 25.4461C125.485 25.0994 125.381 24.7918 125.286 24.5231H125.247C125.134 24.8438 125.013 25.1774 124.883 25.5241C124.753 25.8708 124.627 26.1958 124.506 26.4991H125.962Z" fill="#304BA0"/>
</svg>
