<svg width="32" height="32" viewBox="0 0 32 32" fill="none" xmlns="http://www.w3.org/2000/svg">
<circle cx="16" cy="16" r="16" fill="#F7F7F7"/>
<mask id="mask0_2516_244" style="mask-type:alpha" maskUnits="userSpaceOnUse" x="6" y="6" width="20" height="20">
<rect x="6" y="6" width="20" height="20" fill="#D9D9D9"/>
</mask>
<g mask="url(#mask0_2516_244)">
<path d="M9.75 21.7371V20.4873H11.2565V14.2692C11.2565 13.1485 11.6024 12.1576 12.2942 11.2965C12.9858 10.4353 13.8739 9.88458 14.9583 9.64417V9.125C14.9583 8.83569 15.0595 8.58972 15.2619 8.38708C15.4642 8.18458 15.7099 8.08333 15.999 8.08333C16.2881 8.08333 16.5342 8.18458 16.7371 8.38708C16.9401 8.58972 17.0417 8.83569 17.0417 9.125V9.64417C18.1261 9.88458 19.0142 10.4353 19.7058 11.2965C20.3976 12.1576 20.7435 13.1485 20.7435 14.2692V20.4873H22.25V21.7371H9.75ZM15.9985 24.0769C15.584 24.0769 15.2295 23.9294 14.9352 23.6344C14.6408 23.3394 14.4935 22.9847 14.4935 22.5704H17.5065C17.5065 22.9861 17.3588 23.3411 17.0635 23.6354C16.7683 23.9297 16.4133 24.0769 15.9985 24.0769ZM12.5065 20.4873H19.4935V14.2692C19.4935 13.3044 19.1525 12.481 18.4704 11.799C17.7882 11.1167 16.9647 10.7756 16 10.7756C15.0353 10.7756 14.2118 11.1167 13.5296 11.799C12.8475 12.481 12.5065 13.3044 12.5065 14.2692V20.4873Z" fill="#2B2342"/>
</g>
</svg>
