<svg width="14" height="14" viewBox="0 0 14 14" fill="none" xmlns="http://www.w3.org/2000/svg">
<mask id="mask0_2370_382" style="mask-type:alpha" maskUnits="userSpaceOnUse" x="0" y="0" width="14" height="14">
<rect width="14" height="14" fill="#D9D9D9"/>
</mask>
<g mask="url(#mask0_2370_382)">
<path d="M1.16675 13.9998V12.2498H12.8334V13.9998H1.16675ZM3.50008 9.57439H4.22137L9.06304 4.74162L8.69627 4.36931L8.33285 4.01143L3.50008 8.8531V9.57439ZM2.62508 10.4494V8.48064L9.1641 1.95066C9.24859 1.86617 9.3445 1.80225 9.45183 1.75889C9.55907 1.71553 9.67068 1.69385 9.78667 1.69385C9.90275 1.69385 10.0151 1.71553 10.1238 1.75889C10.2325 1.80225 10.3321 1.86919 10.4226 1.9597L11.1238 2.66977C11.2143 2.75425 11.2798 2.85104 11.3201 2.96012C11.3605 3.0691 11.3806 3.18179 11.3806 3.29816C11.3806 3.40724 11.3602 3.5157 11.3192 3.62351C11.2783 3.73143 11.2132 3.83006 11.1238 3.91941L4.59383 10.4494H2.62508ZM9.06304 4.74162L8.69627 4.36931L8.33285 4.01143L9.06304 4.74162Z" fill="#B0B0B0"/>
</g>
</svg>
