<svg width="24" height="24" viewBox="0 0 24 24" fill="none" xmlns="http://www.w3.org/2000/svg">
<path d="M12.75 6.75H7.5C7.30109 6.75 7.11032 6.67098 6.96967 6.53033C6.82902 6.38968 6.75 6.19891 6.75 6C6.75 5.80109 6.82902 5.61032 6.96967 5.46967C7.11032 5.32902 7.30109 5.25 7.5 5.25H12.75C12.9489 5.25 13.1397 5.32902 13.2803 5.46967C13.421 5.61032 13.5 5.80109 13.5 6C13.5 6.19891 13.421 6.38968 13.2803 6.53033C13.1397 6.67098 12.9489 6.75 12.75 6.75ZM15 10.5H7.5C7.30109 10.5 7.11032 10.421 6.96967 10.2803C6.82902 10.1397 6.75 9.94891 6.75 9.75C6.75 9.55109 6.82902 9.36032 6.96967 9.21967C7.11032 9.07902 7.30109 9 7.5 9H15C15.1989 9 15.3897 9.07902 15.5303 9.21967C15.671 9.36032 15.75 9.55109 15.75 9.75C15.75 9.94891 15.671 10.1397 15.5303 10.2803C15.3897 10.421 15.1989 10.5 15 10.5ZM11.895 13.5H7.5C7.30109 13.5 7.11032 13.421 6.96967 13.2803C6.82902 13.1397 6.75 12.9489 6.75 12.75C6.75 12.5511 6.82902 12.3603 6.96967 12.2197C7.11032 12.079 7.30109 12 7.5 12H11.895C12.0939 12 12.2847 12.079 12.4253 12.2197C12.566 12.3603 12.645 12.5511 12.645 12.75C12.645 12.9489 12.566 13.1397 12.4253 13.2803C12.2847 13.421 12.0939 13.5 11.895 13.5ZM10.095 16.5H7.5C7.30109 16.5 7.11032 16.421 6.96967 16.2803C6.82902 16.1397 6.75 15.9489 6.75 15.75C6.75 15.5511 6.82902 15.3603 6.96967 15.2197C7.11032 15.079 7.30109 15 7.5 15H10.095C10.2939 15 10.4847 15.079 10.6253 15.2197C10.766 15.3603 10.845 15.5511 10.845 15.75C10.845 15.9489 10.766 16.1397 10.6253 16.2803C10.4847 16.421 10.2939 16.5 10.095 16.5Z" fill="white"/>
<path d="M10.095 21H6.75C4.68225 21 3 19.3177 3 17.25V4.5C3 2.43225 4.68225 0.75 6.75 0.75H15.75C17.8177 0.75 19.5 2.43225 19.5 4.5V10.65C19.5 10.8489 19.421 11.0397 19.2803 11.1803C19.1397 11.321 18.9489 11.4 18.75 11.4C18.5511 11.4 18.3603 11.321 18.2197 11.1803C18.079 11.0397 18 10.8489 18 10.65V4.5C18 3.2595 16.9905 2.25 15.75 2.25H6.75C5.5095 2.25 4.5 3.2595 4.5 4.5V17.25C4.5 18.4905 5.5095 19.5 6.75 19.5H10.095C10.2939 19.5 10.4847 19.579 10.6253 19.7197C10.766 19.8603 10.845 20.0511 10.845 20.25C10.845 20.4489 10.766 20.6397 10.6253 20.7803C10.4847 20.921 10.2939 21 10.095 21Z" fill="white"/>
<path d="M17.25 23.25C14.3558 23.25 12 20.895 12 18C12 15.105 14.3558 12.75 17.25 12.75C20.1442 12.75 22.5 15.105 22.5 18C22.5 20.895 20.1442 23.25 17.25 23.25ZM17.25 14.25C15.1823 14.25 13.5 15.9323 13.5 18C13.5 20.0677 15.1823 21.75 17.25 21.75C19.3177 21.75 21 20.0677 21 18C21 15.9323 19.3177 14.25 17.25 14.25Z" fill="white"/>
<path d="M16.7498 19.8997C16.6513 19.8998 16.5537 19.8805 16.4627 19.8428C16.3717 19.8051 16.2891 19.7497 16.2195 19.68L15.2198 18.6802C15.1501 18.6106 15.0949 18.5279 15.0572 18.437C15.0195 18.346 15.0001 18.2485 15.0001 18.15C15.0001 18.0515 15.0195 17.954 15.0572 17.863C15.0949 17.772 15.1501 17.6894 15.2198 17.6197C15.2894 17.5501 15.3721 17.4949 15.463 17.4572C15.554 17.4195 15.6515 17.4001 15.75 17.4001C15.8485 17.4001 15.946 17.4195 16.037 17.4572C16.128 17.4949 16.2106 17.5501 16.2803 17.6197L16.7498 18.0892L18.2198 16.62C18.2894 16.5504 18.3721 16.4951 18.463 16.4574C18.554 16.4198 18.6515 16.4004 18.75 16.4004C18.8485 16.4004 18.946 16.4198 19.037 16.4574C19.128 16.4951 19.2106 16.5504 19.2803 16.62C19.3499 16.6896 19.4051 16.7723 19.4428 16.8633C19.4805 16.9543 19.4999 17.0518 19.4999 17.1502C19.4999 17.2487 19.4805 17.3462 19.4428 17.4372C19.4051 17.5282 19.3499 17.6109 19.2803 17.6805L17.28 19.6807C17.2105 19.7505 17.1278 19.8058 17.0368 19.8435C16.9458 19.8812 16.8483 19.8998 16.7498 19.8997Z" fill="white"/>
</svg>
