<svg width="20" height="20" viewBox="0 0 20 20" fill="none" xmlns="http://www.w3.org/2000/svg">
<g clip-path="url(#clip0_2308_516)">
<path d="M9.54367 14.1667C7.24617 14.1667 5.37695 12.2975 5.37695 10C5.37695 7.7025 7.24617 5.83328 9.54367 5.83328C11.8411 5.83328 13.7102 7.7025 13.7102 10C13.7102 12.2975 11.8411 14.1667 9.54367 14.1667ZM9.54367 7.08328C7.93527 7.08328 6.62695 8.39172 6.62695 10C6.62695 11.6083 7.93527 12.9167 9.54367 12.9167C11.152 12.9167 12.4602 11.6083 12.4602 10C12.4602 8.39172 11.152 7.08328 9.54367 7.08328Z" fill="white"/>
<path d="M10.9294 20H8.15767C7.49103 20 6.90189 19.5267 6.75689 18.8742L6.40611 17.3141C5.83435 17.0717 5.28931 16.7551 4.77771 16.3684L3.25853 16.8483C2.60681 17.0508 1.89853 16.7741 1.57181 16.1908L0.190289 13.8017C-0.140688 13.21 -0.0289688 12.4817 0.457789 12.0233L1.63513 10.9409C1.59943 10.6233 1.58189 10.3084 1.58189 10C1.58189 9.6916 1.59947 9.37668 1.63439 9.05914L0.46357 7.98172C-0.0290078 7.51832 -0.14143 6.79 0.186031 6.20594L1.57611 3.80172C1.89853 3.22496 2.60853 2.9509 3.25607 3.15004L4.77771 3.63082C5.28931 3.24418 5.83435 2.92754 6.40611 2.68492L6.75767 1.12336C6.90189 0.473359 7.49103 0 8.15767 0H10.9294C11.5961 0 12.1852 0.47332 12.3302 1.12578L12.681 2.68586C13.2527 2.92832 13.7978 3.24492 14.3094 3.63156L15.8285 3.15172C16.482 2.9509 17.1886 3.22586 17.5153 3.80922L18.897 6.19828C19.2277 6.79 19.1161 7.51832 18.6293 7.97668L17.452 9.05914C17.4869 9.37668 17.5044 9.69254 17.5044 10C17.5044 10.3075 17.4869 10.6233 17.452 10.9409L18.6235 12.0175C18.6252 12.0192 18.6269 12.0209 18.6293 12.0226C18.866 12.2449 19.0213 12.5401 19.0706 12.8611C19.1198 13.182 19.0601 13.5102 18.9011 13.7933L17.511 16.1975C17.1886 16.7741 16.4803 17.05 15.8302 16.8483L14.3085 16.3675C13.7969 16.7541 13.2519 17.0708 12.6802 17.3134L12.3285 18.875C12.1852 19.5267 11.5961 20 10.9294 20ZM4.90525 15.0491C5.04853 15.0491 5.18939 15.0983 5.30275 15.1916C5.87525 15.6625 6.49935 16.0259 7.16017 16.2692C7.25802 16.3053 7.34529 16.3653 7.414 16.4437C7.48272 16.5221 7.5307 16.6165 7.55357 16.7183L7.97779 18.6017C7.99685 18.6884 8.07271 18.75 8.15857 18.75H10.9302C11.0161 18.75 11.0919 18.6884 11.1102 18.6034L11.5352 16.7183C11.5581 16.6165 11.606 16.5221 11.6748 16.4437C11.7435 16.3653 11.8307 16.3053 11.9286 16.2692C12.5885 16.0259 13.2135 15.6625 13.786 15.1916C13.8663 15.1251 13.962 15.0798 14.0644 15.0598C14.1668 15.0399 14.2725 15.046 14.3719 15.0775L16.2061 15.6568C16.2935 15.6842 16.3869 15.6517 16.4269 15.58L17.8169 13.1758C17.8586 13.1016 17.8435 13 17.777 12.935L16.3703 11.6417C16.2951 11.5725 16.238 11.486 16.204 11.3897C16.17 11.2934 16.1601 11.1902 16.1752 11.0892C16.2302 10.72 16.2578 10.3534 16.2578 9.99922C16.2578 9.64492 16.2302 9.27824 16.1752 8.90914C16.1602 8.80813 16.1701 8.70496 16.2041 8.60864C16.238 8.51233 16.2951 8.42581 16.3703 8.35664L17.7802 7.05992C17.8435 7.0009 17.8586 6.89742 17.8127 6.815L16.431 4.42582C16.3861 4.3466 16.2911 4.31504 16.2044 4.3425L14.3727 4.92082C14.171 4.98504 13.9511 4.94172 13.7869 4.80668C13.2144 4.33578 12.5902 3.97246 11.9294 3.7291C11.8315 3.69306 11.7442 3.63308 11.6756 3.55464C11.6069 3.47619 11.5589 3.38178 11.5361 3.28004L11.1119 1.39664C11.091 1.31164 11.0152 1.25 10.9294 1.25H8.15767C8.07193 1.25 7.99607 1.31164 7.97775 1.39664L7.55267 3.28172C7.52972 3.3834 7.48173 3.47774 7.41306 3.55617C7.34438 3.63459 7.2572 3.69461 7.15943 3.73078C6.49935 3.97414 5.87435 4.33746 5.30275 4.80836C5.13857 4.9434 4.91685 4.98582 4.71697 4.9225L2.88271 4.34324C2.79697 4.31668 2.70189 4.34832 2.66193 4.42L1.27185 6.82328C1.23017 6.89836 1.24529 7.00164 1.31443 7.06664L2.71943 8.35754C2.79462 8.42668 2.85172 8.51321 2.88571 8.60953C2.91971 8.70586 2.92957 8.80906 2.91443 8.91008C2.85935 9.27918 2.83189 9.64586 2.83189 10C2.83189 10.3541 2.85935 10.7208 2.91443 11.0899C2.94529 11.295 2.87185 11.5016 2.71943 11.6425L1.30939 12.9391C1.24603 12.9984 1.23111 13.1016 1.27685 13.1842L2.65857 15.5733C2.70263 15.6525 2.79771 15.6833 2.88513 15.6568L4.71697 15.0782C4.77861 15.0583 4.84197 15.0491 4.90525 15.0491Z" fill="white"/>
</g>
<defs>
<clipPath id="clip0_2308_516">
<rect width="20" height="20" fill="white"/>
</clipPath>
</defs>
</svg>
