<svg width="20" height="20" viewBox="0 0 20 20" fill="none" xmlns="http://www.w3.org/2000/svg">
<g clip-path="url(#clip0_2308_403)">
<path d="M6.66671 9.16668H3.33337C2.67033 9.16668 2.03445 8.90329 1.56561 8.43444C1.09677 7.9656 0.833374 7.32972 0.833374 6.66668V3.33334C0.833374 2.6703 1.09677 2.03442 1.56561 1.56558C2.03445 1.09674 2.67033 0.833344 3.33337 0.833344H6.66671C7.32975 0.833344 7.96563 1.09674 8.43448 1.56558C8.90332 2.03442 9.16671 2.6703 9.16671 3.33334V6.66668C9.16671 7.32972 8.90332 7.9656 8.43448 8.43444C7.96563 8.90329 7.32975 9.16668 6.66671 9.16668ZM3.33337 2.50001C3.11236 2.50001 2.9004 2.58781 2.74412 2.74409C2.58784 2.90037 2.50004 3.11233 2.50004 3.33334V6.66668C2.50004 6.88769 2.58784 7.09965 2.74412 7.25593C2.9004 7.41221 3.11236 7.50001 3.33337 7.50001H6.66671C6.88772 7.50001 7.09968 7.41221 7.25596 7.25593C7.41224 7.09965 7.50004 6.88769 7.50004 6.66668V3.33334C7.50004 3.11233 7.41224 2.90037 7.25596 2.74409C7.09968 2.58781 6.88772 2.50001 6.66671 2.50001H3.33337ZM16.6667 9.16668H13.3334C12.6703 9.16668 12.0344 8.90329 11.5656 8.43444C11.0968 7.9656 10.8334 7.32972 10.8334 6.66668V3.33334C10.8334 2.6703 11.0968 2.03442 11.5656 1.56558C12.0344 1.09674 12.6703 0.833344 13.3334 0.833344H16.6667C17.3298 0.833344 17.9656 1.09674 18.4345 1.56558C18.9033 2.03442 19.1667 2.6703 19.1667 3.33334V6.66668C19.1667 7.32972 18.9033 7.9656 18.4345 8.43444C17.9656 8.90329 17.3298 9.16668 16.6667 9.16668ZM13.3334 2.50001C13.1124 2.50001 12.9004 2.58781 12.7441 2.74409C12.5878 2.90037 12.5 3.11233 12.5 3.33334V6.66668C12.5 6.88769 12.5878 7.09965 12.7441 7.25593C12.9004 7.41221 13.1124 7.50001 13.3334 7.50001H16.6667C16.8877 7.50001 17.0997 7.41221 17.256 7.25593C17.4122 7.09965 17.5 6.88769 17.5 6.66668V3.33334C17.5 3.11233 17.4122 2.90037 17.256 2.74409C17.0997 2.58781 16.8877 2.50001 16.6667 2.50001H13.3334ZM6.66671 19.1667H3.33337C2.67033 19.1667 2.03445 18.9033 1.56561 18.4344C1.09677 17.9656 0.833374 17.3297 0.833374 16.6667V13.3333C0.833374 12.6703 1.09677 12.0344 1.56561 11.5656C2.03445 11.0967 2.67033 10.8333 3.33337 10.8333H6.66671C7.32975 10.8333 7.96563 11.0967 8.43448 11.5656C8.90332 12.0344 9.16671 12.6703 9.16671 13.3333V16.6667C9.16671 17.3297 8.90332 17.9656 8.43448 18.4344C7.96563 18.9033 7.32975 19.1667 6.66671 19.1667ZM3.33337 12.5C3.11236 12.5 2.9004 12.5878 2.74412 12.7441C2.58784 12.9004 2.50004 13.1123 2.50004 13.3333V16.6667C2.50004 16.8877 2.58784 17.0997 2.74412 17.2559C2.9004 17.4122 3.11236 17.5 3.33337 17.5H6.66671C6.88772 17.5 7.09968 17.4122 7.25596 17.2559C7.41224 17.0997 7.50004 16.8877 7.50004 16.6667V13.3333C7.50004 13.1123 7.41224 12.9004 7.25596 12.7441C7.09968 12.5878 6.88772 12.5 6.66671 12.5H3.33337ZM16.6667 19.1667H13.3334C12.6703 19.1667 12.0344 18.9033 11.5656 18.4344C11.0968 17.9656 10.8334 17.3297 10.8334 16.6667V13.3333C10.8334 12.6703 11.0968 12.0344 11.5656 11.5656C12.0344 11.0967 12.6703 10.8333 13.3334 10.8333H16.6667C17.3298 10.8333 17.9656 11.0967 18.4345 11.5656C18.9033 12.0344 19.1667 12.6703 19.1667 13.3333V16.6667C19.1667 17.3297 18.9033 17.9656 18.4345 18.4344C17.9656 18.9033 17.3298 19.1667 16.6667 19.1667ZM13.3334 12.5C13.1124 12.5 12.9004 12.5878 12.7441 12.7441C12.5878 12.9004 12.5 13.1123 12.5 13.3333V16.6667C12.5 16.8877 12.5878 17.0997 12.7441 17.2559C12.9004 17.4122 13.1124 17.5 13.3334 17.5H16.6667C16.8877 17.5 17.0997 17.4122 17.256 17.2559C17.4122 17.0997 17.5 16.8877 17.5 16.6667V13.3333C17.5 13.1123 17.4122 12.9004 17.256 12.7441C17.0997 12.5878 16.8877 12.5 16.6667 12.5H13.3334Z" fill="white"/>
</g>
<defs>
<clipPath id="clip0_2308_403">
<rect width="20" height="20" fill="white"/>
</clipPath>
</defs>
</svg>
