<svg width="24" height="24" viewBox="0 0 24 24" fill="none" xmlns="http://www.w3.org/2000/svg">
<mask id="mask0_2308_447" style="mask-type:alpha" maskUnits="userSpaceOnUse" x="0" y="0" width="24" height="24">
<rect width="24" height="24" fill="#D9D9D9"/>
</mask>
<g mask="url(#mask0_2308_447)">
<path d="M13.7499 12.7115C13.0513 12.7115 12.4599 12.4695 11.9759 11.9855C11.4919 11.5015 11.2499 10.9102 11.2499 10.2115C11.2499 9.51284 11.4919 8.92151 11.9759 8.43751C12.4599 7.95351 13.0513 7.71151 13.7499 7.71151C14.4486 7.71151 15.0399 7.95351 15.5239 8.43751C16.0079 8.92151 16.2499 9.51284 16.2499 10.2115C16.2499 10.9102 16.0079 11.5015 15.5239 11.9855C15.0399 12.4695 14.4486 12.7115 13.7499 12.7115ZM7.15369 15.8078C6.65669 15.8078 6.23119 15.6308 5.87719 15.2768C5.52319 14.9228 5.34619 14.4972 5.34619 14V6.42301C5.34619 5.92601 5.52319 5.50051 5.87719 5.14651C6.23119 4.79251 6.65669 4.61551 7.15369 4.61551H20.3459C20.8431 4.61551 21.2687 4.79251 21.6227 5.14651C21.9767 5.50051 22.1537 5.92601 22.1537 6.42301V14C22.1537 14.4972 21.9767 14.9228 21.6227 15.2768C21.2687 15.6308 20.8431 15.8078 20.3459 15.8078H7.15369ZM8.65369 14.3078H18.8462C18.8462 13.8091 19.0232 13.3831 19.3772 13.0298C19.7312 12.6766 20.1567 12.5 20.6537 12.5V7.92301C20.155 7.92301 19.7291 7.74601 19.3759 7.39201C19.0228 7.03801 18.8462 6.61251 18.8462 6.11551H8.65369C8.65369 6.61418 8.47669 7.04009 8.12269 7.39326C7.76869 7.74643 7.34319 7.92301 6.84619 7.92301V12.5C7.34486 12.5 7.77077 12.677 8.12394 13.031C8.47711 13.385 8.65369 13.8106 8.65369 14.3078ZM19.1729 19.3078H3.65394C3.15677 19.3078 2.73119 19.1308 2.37719 18.7768C2.02319 18.4228 1.84619 17.9972 1.84619 17.5V7.59626H3.34619V17.5C3.34619 17.5768 3.37819 17.6473 3.44219 17.7115C3.50636 17.7757 3.57694 17.8078 3.65394 17.8078H19.1729V19.3078ZM7.15369 14.3078H6.84619V6.11551H7.15369C7.07036 6.11551 6.99827 6.14593 6.93744 6.20676C6.87661 6.26759 6.84619 6.33968 6.84619 6.42301V14C6.84619 14.0833 6.87661 14.1554 6.93744 14.2163C6.99827 14.2773 7.07036 14.3078 7.15369 14.3078Z" fill="white"/>
</g>
</svg>
